<svg width="732" height="783" viewBox="0 0 732 783" fill="none" xmlns="http://www.w3.org/2000/svg">
<ellipse cx="455.311" cy="450.059" rx="39.6445" ry="42.6941" fill="#EB6B03"/>
<path d="M110.708 626.935L153.402 620.835L167.669 617.478C192.597 611.613 216.581 602.289 238.925 589.777L240.188 589.069C267.503 573.773 291.908 553.781 312.282 530.011L321.366 519.413C331.324 507.796 339.627 494.857 346.039 480.965C351.774 468.541 355.949 455.456 358.471 442.006L363.823 413.464L376.021 453.109L388.217 483.606L397.954 501.129C401.604 507.696 406.336 513.6 411.951 518.591L414.836 521.156C425.193 530.362 438.568 535.448 452.426 535.448C464.219 535.448 475.716 531.763 485.313 524.909L487.524 523.329C490.44 521.246 493.179 518.926 495.713 516.392L516.302 495.802L504.104 523.249L488.855 547.646C470.778 575.767 446.763 599.59 418.498 617.442L403.468 626.934L391.749 632.794C363.146 647.096 332.455 656.77 300.821 661.456C277.841 664.86 254.545 665.605 231.395 663.676L223.213 662.994C203.174 661.324 183.406 657.266 164.329 650.907C152.993 647.129 141.939 642.55 131.251 637.206L110.708 626.935Z" fill="#EB6B03"/>
<ellipse cx="29.6077" cy="31.8852" rx="29.6077" ry="31.8852" transform="matrix(0.321621 -0.946869 -0.946869 -0.321621 338.535 180.562)" fill="#01236A"/>
<path d="M110.016 343.473L124.584 314.746L130.384 305.464C140.519 289.245 152.874 274.524 167.089 261.729L167.893 261.006C185.271 245.364 205.27 232.908 226.972 224.21L236.649 220.332C247.255 216.081 258.399 213.317 269.763 212.12C279.926 211.049 290.183 211.239 300.299 212.686L321.768 215.757L296.664 197.609L278.027 181.659L267.974 170.564C264.207 166.406 261.169 161.642 258.988 156.473L257.867 153.817C253.845 144.281 253.461 133.601 256.79 123.802C259.622 115.463 264.99 108.217 272.142 103.078L273.79 101.893C275.963 100.331 278.262 98.9518 280.662 97.7686L300.168 88.1542L277.829 90.188L256.914 95.1108C232.686 101.14 210.071 112.399 190.658 128.099L180.336 136.448L173.377 143.327C156.393 160.119 142.18 179.498 131.268 200.742C123.341 216.175 117.219 232.47 113.023 249.304L111.54 255.253C107.907 269.825 106.028 284.779 105.943 299.797C105.892 308.721 106.475 317.637 107.687 326.479L110.016 343.473Z" fill="#01236A"/>
<ellipse cx="20.6222" cy="22.2085" rx="20.6222" ry="22.2085" transform="matrix(-1 0 0 1 168.101 332.836)" fill="#269721"/>
<path d="M331.207 432.01L308.793 431.038L301.237 430.03C288.032 428.27 275.14 424.671 262.933 419.338L262.243 419.036C247.32 412.516 233.663 403.416 221.9 392.154L216.655 387.133C210.906 381.629 205.946 375.357 201.916 368.493C198.311 362.356 195.48 355.796 193.486 348.963L189.255 334.461L184.969 355.608L180.217 372.019L176.073 381.589C174.52 385.175 172.373 388.473 169.722 391.344L168.36 392.819C163.47 398.115 156.806 401.432 149.633 402.142C143.528 402.745 137.388 401.426 132.069 398.369L130.844 397.665C129.228 396.736 127.691 395.675 126.25 394.493L114.538 384.889L122.257 398.472L131.399 410.321C142.196 423.953 155.847 435.056 171.392 442.85L179.658 446.994L186.025 449.428C201.563 455.367 217.946 458.804 234.561 459.611C246.631 460.197 258.728 459.39 270.613 457.206L274.814 456.435C285.101 454.544 295.127 451.432 304.677 447.164C310.351 444.628 315.839 441.692 321.098 438.378L331.207 432.01Z" fill="#269721"/>
<path d="M351.625 103.906L364.976 116.529C374.35 125.393 382.828 135.159 390.286 145.685C400.054 159.472 408.002 174.462 413.932 190.283L418.716 203.047L422.325 223.497C425.997 244.304 426.436 265.84 423.704 286.79C420.437 311.834 412.512 336.404 400.418 358.575L376.022 392.642L406.518 373.823L408.674 372.625C425.498 363.279 443.152 355.513 461.41 349.426L473.776 346.335C481.675 344.36 489.939 344.36 497.838 346.335L499.666 346.792C506.561 348.516 512.858 352.081 517.884 357.107C524.72 363.943 528.79 373.063 529.312 382.717L531.155 416.772L530.048 448.761L540.943 423.116L547.84 397.333L549.863 389.365C556.215 364.35 559.428 338.641 559.428 312.832L557.255 296.593C554.361 274.973 548.8 253.795 540.699 233.542C518.892 187.947 483.26 150.39 438.872 126.219L437.152 125.282C411.367 111.255 382.48 103.906 353.127 103.906L351.625 103.906Z" fill="#EB6B03"/>
</svg>
