<svg xmlns="http://www.w3.org/2000/svg" xmlns:xlink="http://www.w3.org/1999/xlink" width="510" zoomAndPan="magnify" viewBox="0 0 382.5 236.249991" height="315" preserveAspectRatio="xMidYMid meet" version="1.0"><defs><clipPath id="48c075aa7f"><path d="M 24.613281 0 L 381.246094 0 L 381.246094 235.503906 L 24.613281 235.503906 Z M 24.613281 0 " clip-rule="nonzero"/></clipPath><clipPath id="e63a7fb275"><path d="M 224.828125 0 C 226.472656 11.664062 228.0625 43.722656 200.027344 60.976562 C 188.066406 68.339844 176.238281 70.246094 165.046875 70.246094 C 159.027344 70.246094 153.1875 69.695312 147.613281 69.140625 C 142.035156 68.585938 136.734375 68.035156 131.753906 68.035156 C 119.507812 68.035156 109.320312 71.382812 102.351562 86.320312 C 92.289062 107.898438 125.324219 145.015625 107.980469 182.367188 C 91.53125 217.804688 39.0625 200.3125 24.613281 235.503906 L 381.246094 235.503906 L 381.246094 0 Z M 224.828125 0 " clip-rule="nonzero"/></clipPath><clipPath id="7fb19ef0b0"><path d="M 16.058594 68.035156 L 129.683594 68.035156 L 129.683594 235.503906 L 16.058594 235.503906 Z M 16.058594 68.035156 " clip-rule="nonzero"/></clipPath><clipPath id="288ca59cdd"><path d="M 123.207031 68.035156 C 110.960938 68.035156 100.769531 71.382812 93.804688 86.320312 C 83.738281 107.898438 116.777344 145.019531 99.433594 182.371094 C 82.976562 217.808594 30.507812 200.3125 16.058594 235.503906 L 92.105469 235.503906 C 95.050781 232.667969 97.953125 229.65625 100.761719 226.398438 C 134.113281 187.707031 102.910156 142.761719 111.753906 99.660156 C 114.265625 87.429688 121.136719 76.976562 129.683594 68.289062 C 127.46875 68.132812 125.300781 68.035156 123.199219 68.035156 Z M 123.207031 68.035156 " clip-rule="nonzero"/></clipPath><clipPath id="7324887e7b"><path d="M 0.355469 0 L 246.953125 0 L 246.953125 235.503906 L 0.355469 235.503906 Z M 0.355469 0 " clip-rule="nonzero"/></clipPath><clipPath id="fc2c433d7a"><path d="M 242.167969 0 C 225.625 9.777344 209.257812 12.351562 193.707031 12.351562 C 184.683594 12.351562 175.9375 11.484375 167.585938 10.652344 C 159.972656 9.898438 152.65625 9.171875 145.738281 9.171875 C 127.738281 9.171875 112.5 14.101562 102.160156 36.28125 C 95.6875 50.171875 101.03125 67.847656 107.230469 88.316406 C 115.230469 114.738281 124.289062 144.6875 110.285156 174.855469 C 98.699219 199.824219 73.960938 206.308594 50.042969 212.582031 C 31.765625 217.371094 13.066406 222.277344 0.355469 235.503906 L 3.839844 235.503906 C 15.847656 224.160156 32.9375 219.667969 50.679688 215.023438 C 75.164062 208.609375 100.476562 201.972656 112.574219 175.925781 C 126.988281 144.890625 117.769531 114.445312 109.644531 87.59375 C 103.597656 67.617188 98.378906 50.367188 104.449219 37.351562 C 114.203125 16.433594 128.214844 11.679688 145.566406 11.679688 C 152.332031 11.679688 159.609375 12.402344 167.347656 13.164062 C 175.808594 14.003906 184.683594 14.886719 193.847656 14.886719 C 210.15625 14.886719 227.386719 12.097656 244.90625 1.324219 L 246.953125 0 Z M 242.167969 0 " clip-rule="nonzero"/></clipPath></defs><g clip-path="url(#48c075aa7f)"><g clip-path="url(#e63a7fb275)"><path fill="#1f4c9f" d="M 24.613281 0 L 381.246094 0 L 381.246094 235.765625 L 24.613281 235.765625 Z M 24.613281 0 " fill-opacity="1" fill-rule="nonzero"/></g></g><g clip-path="url(#7fb19ef0b0)"><g clip-path="url(#288ca59cdd)"><path fill="#fc7f00" d="M 16.058594 68.035156 L 129.683594 68.035156 L 129.683594 235.367188 L 16.058594 235.367188 Z M 16.058594 68.035156 " fill-opacity="1" fill-rule="nonzero"/></g></g><g clip-path="url(#7324887e7b)"><g clip-path="url(#fc2c433d7a)"><path fill="#00ff00" d="M 0.355469 0 L 246.953125 0 L 246.953125 235.390625 L 0.355469 235.390625 Z M 0.355469 0 " fill-opacity="1" fill-rule="nonzero"/></g></g></svg>